<?xml version="1.0" standalone="no"?><!DOCTYPE svg PUBLIC "-//W3C//DTD SVG 1.1//EN" "http://www.w3.org/Graphics/SVG/1.1/DTD/svg11.dtd"><svg t="1682148894117" class="icon" viewBox="0 0 1024 1024" version="1.1" xmlns="http://www.w3.org/2000/svg" p-id="2616" xmlns:xlink="http://www.w3.org/1999/xlink" width="200" height="200"><path d="M948.313043 442.991304l-369.530435 0 0-369.530435c0-37.843478-31.165217-69.008696-69.008696-69.008696-37.843478 0-69.008696 31.165217-69.008696 69.008696l0 369.530435-369.530435 0c-37.843478 0-69.008696 31.165217-69.008696 69.008696 0 37.843478 31.165217 69.008696 69.008696 69.008696l369.530435 0 0 369.530435c0 37.843478 31.165217 69.008696 69.008696 69.008696 37.843478 0 69.008696-31.165217 69.008696-69.008696l0-369.530435 369.530435 0c37.843478 0 69.008696-31.165217 69.008696-69.008696C1017.321739 474.156522 988.382609 442.991304 948.313043 442.991304z" fill="#221714" p-id="2617" class="custom-cursor-on-hover"></path></svg>