<?xml version="1.0" standalone="no"?><!DOCTYPE svg PUBLIC "-//W3C//DTD SVG 1.1//EN" "http://www.w3.org/Graphics/SVG/1.1/DTD/svg11.dtd"><svg t="1676086687836" class="icon" viewBox="0 0 1026 1024" version="1.1" xmlns="http://www.w3.org/2000/svg" p-id="2848" xmlns:xlink="http://www.w3.org/1999/xlink" width="200.390625" height="200"><path d="M1013.7 90.8C997.8 75.5 972.4 76 957.1 92L510.9 557.1 73.2 90.8C58 74.7 32.7 73.9 16.6 89 0.5 104.1-0.3 129.4 14.8 145.5l466.6 497.1 1.5 1.5c0.2 0.2 0.4 0.4 0.7 0.6 0.3 0.3 0.6 0.5 0.9 0.8 0.3 0.3 0.6 0.5 0.9 0.7 0.2 0.2 0.4 0.4 0.7 0.6 0.3 0.2 0.6 0.5 0.9 0.7 0.2 0.2 0.5 0.4 0.7 0.5l0.9 0.6c0.3 0.2 0.5 0.4 0.8 0.5 0.3 0.2 0.6 0.3 0.9 0.5 0.3 0.2 0.6 0.3 0.9 0.5 0.3 0.2 0.5 0.3 0.8 0.4 0.3 0.2 0.6 0.3 1 0.5 0.3 0.1 0.5 0.3 0.8 0.4 0.3 0.2 0.7 0.3 1 0.5 0.2 0.1 0.5 0.2 0.7 0.3 0.4 0.2 0.7 0.3 1.1 0.4 0.2 0.1 0.5 0.2 0.7 0.3 0.4 0.1 0.8 0.3 1.2 0.4 0.2 0.1 0.5 0.1 0.7 0.2l1.2 0.3c0.2 0.1 0.4 0.1 0.7 0.2 0.4 0.1 0.8 0.2 1.3 0.3 0.2 0 0.4 0.1 0.6 0.1 0.4 0.1 0.9 0.2 1.3 0.2 0.2 0 0.4 0.1 0.6 0.1 0.5 0.1 0.9 0.1 1.4 0.2 0.2 0 0.4 0 0.6 0.1 0.5 0 1 0.1 1.5 0.1h4.6c0.5 0 1-0.1 1.5-0.1 0.2 0 0.4 0 0.5-0.1 0.5 0 0.9-0.1 1.4-0.2 0.2 0 0.4-0.1 0.6-0.1 0.4-0.1 0.9-0.1 1.3-0.2 0.2 0 0.4-0.1 0.6-0.1l1.2-0.3c0.2-0.1 0.4-0.1 0.7-0.2l1.2-0.3c0.2-0.1 0.5-0.1 0.7-0.2 0.4-0.1 0.8-0.2 1.1-0.4 0.2-0.1 0.5-0.2 0.7-0.3 0.4-0.1 0.7-0.3 1.1-0.4 0.3-0.1 0.5-0.2 0.8-0.3 0.3-0.1 0.7-0.3 1-0.5 0.3-0.1 0.5-0.2 0.8-0.4 0.3-0.2 0.6-0.3 0.9-0.5 0.3-0.1 0.6-0.3 0.8-0.4 0.3-0.2 0.6-0.3 0.8-0.5 0.3-0.2 0.6-0.3 0.9-0.5 0.3-0.2 0.5-0.3 0.8-0.5l0.9-0.6c0.2-0.2 0.4-0.3 0.7-0.5 0.3-0.2 0.6-0.5 1-0.7 0.2-0.1 0.4-0.3 0.6-0.5 0.3-0.3 0.7-0.5 1-0.8 0.2-0.1 0.3-0.3 0.5-0.5 0.5-0.5 1-0.9 1.5-1.4l0.9-0.9 475.4-495.6c15.3-15.7 14.7-41.1-1.2-56.3z" fill="#515151" p-id="2849"></path></svg>