<?xml version="1.0" standalone="no"?><!DOCTYPE svg PUBLIC "-//W3C//DTD SVG 1.1//EN" "http://www.w3.org/Graphics/SVG/1.1/DTD/svg11.dtd"><svg t="1673773373420" class="icon" viewBox="0 0 1024 1024" version="1.1" xmlns="http://www.w3.org/2000/svg" p-id="1462" xmlns:xlink="http://www.w3.org/1999/xlink" width="200" height="200"><path d="M224.0512 799.9488c-70.656 0-128 43.008-128 96.0512s57.344 96.0512 128 96.0512 128-43.008 128-96.0512-57.344-96.0512-128-96.0512z m575.8976-128c-70.656 0-128 43.008-128 96.0512s57.344 96.0512 128 96.0512 128-43.008 128-96.0512-57.2416-96.0512-128-96.0512z" fill="#F0EEE2" p-id="1463"></path><path d="M352.0512 176.0256V384l575.8976-143.9744V31.9488z" fill="#BBAA9C" p-id="1464"></path><path d="M320 911.9744h-48.0256c-8.8064 0-15.9744 7.168-15.9744 15.9744s7.168 15.9744 15.9744 15.9744h48.0256c8.8064 0 15.9744-7.168 15.9744-15.9744s-7.168-15.9744-15.9744-15.9744z m512-143.9744h-48.0256c-8.8064 0-15.9744 7.168-15.9744 15.9744s7.168 15.9744 15.9744 15.9744h48.0256c8.8064 0 15.9744-7.168 15.9744-15.9744s-7.168-15.9744-15.9744-15.9744zM560.0256 143.9744h-128c-8.8064 0-15.9744 7.168-15.9744 15.9744s7.168 15.9744 15.9744 15.9744h128c8.8064 0 15.9744-7.168 15.9744-15.9744s-7.168-15.9744-15.9744-15.9744z m-96.0512 128H352.0512c-8.8064-0.2048-16.1792 6.7584-16.384 15.5648s6.7584 16.1792 15.5648 16.384h112.8448c8.8064-0.2048 15.7696-7.5776 15.5648-16.384-0.3072-8.4992-7.0656-15.36-15.6672-15.5648zM640 207.9744h-31.9488c-8.8064 0.2048-15.7696 7.5776-15.5648 16.384 0.2048 8.4992 7.0656 15.36 15.5648 15.5648H640c8.8064 0.2048 16.1792-6.7584 16.384-15.5648 0.2048-8.8064-6.7584-16.1792-15.5648-16.384h-0.8192zM752.0256 128c-8.8064 0-15.9744 7.168-15.9744 15.9744s7.168 15.9744 15.9744 15.9744 15.9744-7.168 15.9744-15.9744-7.168-15.9744-15.9744-15.9744z m159.9488 31.9488h-48.0256c-8.8064 0-15.9744 7.168-15.9744 15.9744s7.168 15.9744 15.9744 15.9744h48.0256c8.8064 0 15.9744-7.168 15.9744-15.9744s-7.0656-15.9744-15.9744-15.9744zM192 864.0512h-79.9744c-8.8064 0.2048-15.7696 7.5776-15.5648 16.384 0.2048 8.4992 7.0656 15.36 15.5648 15.5648h79.9744c8.8064 0.2048 16.1792-6.7584 16.384-15.5648 0.2048-8.8064-6.7584-16.1792-15.5648-16.384-0.3072-0.1024-0.512-0.1024-0.8192 0z" fill="#D8D5BA" p-id="1465"></path><path d="M896 0c-5.2224 0.1024-10.4448 0.7168-15.4624 2.048v-0.1024l-512 128v0.2048c-28.4672 7.0656-48.4352 32.5632-48.5376 61.8496V793.6c-26.7264-16.0768-60.0064-25.6-96.0512-25.6-88.3712 0-159.9488 57.344-159.9488 128s71.68 128 159.9488 128S384 966.656 384 896V392.2944l512-131.6864V665.6c-26.7264-16.0768-60.0064-25.6-96.0512-25.6C711.68 640 640 697.344 640 768s71.68 128 159.9488 128 159.9488-57.344 159.9488-128V64C960 28.672 931.328 0 896 0zM224.0512 960c-53.0432 0-96.0512-28.672-96.0512-64s43.008-64 96.0512-64 96.0512 28.672 96.0512 64-43.1104 64-96.0512 64z m575.8976-128c-53.0432 0-96.0512-28.672-96.0512-64s43.008-64 96.0512-64 96.0512 28.672 96.0512 64-43.008 64-96.0512 64zM384 359.2192V192.1024l512-128v163.4304L384 359.2192z" fill="#5F4E56" p-id="1466"></path></svg>