<?xml version="1.0" standalone="no"?><!DOCTYPE svg PUBLIC "-//W3C//DTD SVG 1.1//EN" "http://www.w3.org/Graphics/SVG/1.1/DTD/svg11.dtd"><svg t="1673758706994" class="icon" viewBox="0 0 1024 1024" version="1.1" xmlns="http://www.w3.org/2000/svg" p-id="5682" xmlns:xlink="http://www.w3.org/1999/xlink" width="200" height="200"><path d="M477.87008 716.8c0 37.5296-30.74048 68.27008-68.27008 68.27008h-68.27008c-37.5296 0-68.25984-30.74048-68.25984-68.27008V307.2c0-37.5296 30.73024-68.27008 68.25984-68.27008H409.6c37.5296 0 68.27008 30.74048 68.27008 68.27008v409.6zM750.92992 716.8c0 37.5296-30.73024 68.27008-68.25984 68.27008H614.4c-37.5296 0-68.27008-30.74048-68.27008-68.27008V307.2c0-37.5296 30.74048-68.27008 68.27008-68.27008h68.27008c37.5296 0 68.25984 30.74048 68.25984 68.27008v409.6z" p-id="5683"></path></svg>