<?xml version="1.0" standalone="no"?><!DOCTYPE svg PUBLIC "-//W3C//DTD SVG 1.1//EN" "http://www.w3.org/Graphics/SVG/1.1/DTD/svg11.dtd"><svg t="1673759234685" class="icon" viewBox="0 0 1024 1024" version="1.1" xmlns="http://www.w3.org/2000/svg" p-id="21117" xmlns:xlink="http://www.w3.org/1999/xlink" width="200" height="200"><path d="M726.016 256l212.010667 0 0 86.016-128 0 0 384q0 52.010667-38.016 89.984t-89.984 38.016-89.984-38.016-38.016-89.984 38.016-89.984 89.984-38.016q16 0 43.989333 8.021333l0-349.994667zM128 681.984l0-84.010667 342.016 0 0 84.010667-342.016 0zM640 425.984l0 86.016-512 0 0-86.016 512 0zM640 256l0 86.016-512 0 0-86.016 512 0z" fill="#444444" p-id="21118"></path></svg>