<?xml version="1.0" standalone="no"?><!DOCTYPE svg PUBLIC "-//W3C//DTD SVG 1.1//EN" "http://www.w3.org/Graphics/SVG/1.1/DTD/svg11.dtd"><svg t="1674033798614" class="icon" viewBox="0 0 1024 1024" version="1.1" xmlns="http://www.w3.org/2000/svg" p-id="1887" xmlns:xlink="http://www.w3.org/1999/xlink" width="200" height="200"><path d="M914.2 705L796.4 596.8c-8.7-8-22.7-1.8-22.7 10V688c-69.5-1.8-134-39.7-169.3-99.8l-45.1-77 47-80.2c34.9-59.6 98.6-97.4 167.4-99.8v60.1c0 11.8 14 17.9 22.7 10l117.8-108.1c5.8-5.4 5.8-14.6 0-19.9L796.4 165c-8.7-8-22.7-1.8-22.7 10v76H758c-4.7 0-9.3 0.8-13.5 2.3-36.5 4.7-72 16.6-104.1 35-42.6 24.4-78.3 59.8-103.1 102.2L513 432l-24.3-41.5c-24.8-42.4-60.5-77.7-103.1-102.2C343 263.9 294.5 251 245.3 251H105c-22.1 0-40 17.9-40 40s17.9 40 40 40h140.3c71.4 0 138.3 38.3 174.4 99.9l47 80.2-45.1 77c-36.2 61.7-103 99.9-174.4 99.9H105c-22.1 0-40 17.9-40 40s17.9 40 40 40l142 0.1h0.2c49.1 0 97.6-12.9 140.2-37.3 42.7-24.4 78.3-59.8 103.2-102.2l22.4-38.3 22.4 38.3c24.8 42.4 60.5 77.8 103.2 102.2 33.1 18.9 69.6 30.9 107.3 35.4 3.8 1.2 7.8 1.8 11.9 1.8l15.9 0.1v55c0 11.8 14 17.9 22.7 10L914.2 725c5.9-5.5 5.9-14.7 0-20z" p-id="1888"></path></svg>