<?xml version="1.0" standalone="no"?><!DOCTYPE svg PUBLIC "-//W3C//DTD SVG 1.1//EN" "http://www.w3.org/Graphics/SVG/1.1/DTD/svg11.dtd"><svg t="1673760112795" class="icon" viewBox="0 0 1024 1024" version="1.1" xmlns="http://www.w3.org/2000/svg" p-id="53571" xmlns:xlink="http://www.w3.org/1999/xlink" width="200" height="200"><path d="M976 352a48 48 0 0 0-48 48v112c0 106.032-85.968 192-192 192H416v0.048h-47.792v-0.08H339.84l30.048-30.064a48 48 0 1 0-67.872-67.888l-111.968 112.016A47.92 47.92 0 0 0 176 751.984c0 13.264 5.376 25.248 14.048 33.952l111.968 112.016a47.984 47.984 0 1 0 67.888-67.904l-29.968-29.984H432V800h304c159.056 0 288-128.944 288-288v-112a48 48 0 0 0-48-48z m-368-32v-0.064h47.792v0.08h28.368l-30.048 30.064a48 48 0 1 0 67.856 67.888l111.968-112.016A47.792 47.792 0 0 0 848 272.016c0-13.264-5.376-25.264-14.048-33.952l-111.968-112.016a48 48 0 1 0-67.856 67.92l29.968 29.984H592V224H288C128.944 224 0 352.944 0 512v112a48 48 0 1 0 96 0v-112c0-106.032 85.968-192 192-192h320z" fill="" p-id="53572"></path></svg>