<?xml version="1.0" standalone="no"?><!DOCTYPE svg PUBLIC "-//W3C//DTD SVG 1.1//EN" "http://www.w3.org/Graphics/SVG/1.1/DTD/svg11.dtd"><svg t="1673759784084" class="icon" viewBox="0 0 1024 1024" version="1.1" xmlns="http://www.w3.org/2000/svg" p-id="40831" xmlns:xlink="http://www.w3.org/1999/xlink" width="200" height="200"><path d="M128 341.333333C57.28 341.333333 0 400.394667 0 471.114667V554.666667c0 70.72 57.28 128 128 128h85.333333l213.333334 213.333333V128L213.333333 341.333333h-85.333333z m213.322667-8.992L341.333333 330.666667v359.338666L248.661333 597.333333H128c-23.530667 0-42.666667-19.136-42.666667-42.666666v-83.552C85.333333 447.018667 104.874667 426.666667 128 426.666667h120.661333l92.661334-94.325334z m409.12 441.034667a42.634667 42.634667 0 0 1-36.586667-64.554667 381.674667 381.674667 0 0 0 54.133333-196.714666 381.674667 381.674667 0 0 0-54.133333-196.714667 42.645333 42.645333 0 0 1 14.709333-58.485333l0.021334-0.010667a42.645333 42.645333 0 0 1 58.506666 14.72A467.36 467.36 0 0 1 853.333333 512.096a467.381333 467.381333 0 0 1-66.229333 240.512 42.645333 42.645333 0 0 1-36.661333 20.768z m127.690666 117.066667a42.666667 42.666667 0 0 1-35.242666-66.688C905.557333 731.690667 938.666667 623.925333 938.666667 512.096c0-111.829333-33.109333-219.594667-95.776-311.658667a42.677333 42.677333 0 0 1 70.570666-48.010666C985.770667 258.698667 1024 383.072 1024 512.096c0 129.034667-38.229333 253.408-110.538667 359.68a42.752 42.752 0 0 1-35.328 18.666667zM620.096 653.877333a42.666667 42.666667 0 0 1-39.328-59.2A211.914667 211.914667 0 0 0 597.333333 512.096c0-28.821333-5.621333-56.746667-16.746666-83.018667a42.666667 42.666667 0 1 1 78.592-33.258666A296.778667 296.778667 0 0 1 682.666667 512.085333c0 40.074667-7.808 78.965333-23.232 115.637334a42.645333 42.645333 0 0 1-39.338667 26.154666z" p-id="40832"></path></svg>